<mxfile host="app.diagrams.net" modified="2022-05-03T08:26:32.401Z" agent="5.0 (Macintosh)" etag="W55dvDB95z4pJdWrawrS" version="16.6.4" type="github">
  <diagram id="gIfR2CExuslMvjOUPKp3" name="Page-1">
    <mxGraphModel dx="1426" dy="795" grid="1" gridSize="10" guides="1" tooltips="1" connect="1" arrows="1" fold="1" page="1" pageScale="1" pageWidth="1169" pageHeight="827" math="0" shadow="0">
      <root>
        <mxCell id="0" />
        <mxCell id="1" parent="0" />
        <mxCell id="4pG87bc6sIFeFDoikmU0-1" value="" style="rounded=1;whiteSpace=wrap;html=1;arcSize=11;" vertex="1" parent="1">
          <mxGeometry x="120" y="120" width="920" height="600" as="geometry" />
        </mxCell>
        <mxCell id="4pG87bc6sIFeFDoikmU0-3" value="" style="endArrow=none;html=1;rounded=0;exitX=0;exitY=0.5;exitDx=0;exitDy=0;entryX=1;entryY=0.5;entryDx=0;entryDy=0;" edge="1" parent="1" source="4pG87bc6sIFeFDoikmU0-1" target="4pG87bc6sIFeFDoikmU0-1">
          <mxGeometry width="50" height="50" relative="1" as="geometry">
            <mxPoint x="500" y="440" as="sourcePoint" />
            <mxPoint x="550" y="390" as="targetPoint" />
            <Array as="points" />
          </mxGeometry>
        </mxCell>
        <mxCell id="4pG87bc6sIFeFDoikmU0-4" value="" style="endArrow=none;html=1;rounded=0;entryX=0.5;entryY=0;entryDx=0;entryDy=0;exitX=0.5;exitY=1;exitDx=0;exitDy=0;" edge="1" parent="1" source="4pG87bc6sIFeFDoikmU0-1" target="4pG87bc6sIFeFDoikmU0-1">
          <mxGeometry width="50" height="50" relative="1" as="geometry">
            <mxPoint x="500" y="440" as="sourcePoint" />
            <mxPoint x="550" y="390" as="targetPoint" />
          </mxGeometry>
        </mxCell>
        <mxCell id="4pG87bc6sIFeFDoikmU0-5" value="Critical" style="text;html=1;strokeColor=default;fillColor=none;align=center;verticalAlign=middle;whiteSpace=wrap;rounded=0;" vertex="1" parent="1">
          <mxGeometry x="70" y="730" width="60" height="30" as="geometry" />
        </mxCell>
        <mxCell id="4pG87bc6sIFeFDoikmU0-6" value="Less critical" style="text;html=1;strokeColor=default;fillColor=none;align=center;verticalAlign=middle;whiteSpace=wrap;rounded=0;" vertex="1" parent="1">
          <mxGeometry x="1020" y="730" width="80" height="30" as="geometry" />
        </mxCell>
      </root>
    </mxGraphModel>
  </diagram>
</mxfile>
